<svg width="1032" height="581" viewBox="0 0 1032 581" fill="none" xmlns="http://www.w3.org/2000/svg">
<rect width="1032" height="581" fill="#D9D9D9"/>
<path d="M407.104 315.384C404.501 315.384 402.581 314.701 401.344 313.336C400.149 311.928 399.552 310.2 399.552 308.152C399.552 307.256 399.659 306.253 399.872 305.144C400.085 303.992 400.299 302.883 400.512 301.816C400.768 300.749 400.939 300.067 401.024 299.768C401.365 298.275 401.685 296.803 401.984 295.352C402.283 293.901 402.432 292.728 402.432 291.832C402.432 289.656 401.664 288.568 400.128 288.568C399.019 288.568 398.037 289.123 397.184 290.232C396.331 291.299 395.648 292.707 395.136 294.456L390.784 315H381.568L388.352 283H397.568L396.864 286.328C398.997 283.939 401.493 282.744 404.352 282.744C406.528 282.744 408.256 283.341 409.536 284.536C410.816 285.731 411.456 287.544 411.456 289.976C411.456 291.213 411.307 292.6 411.008 294.136C410.709 295.629 410.283 297.464 409.728 299.64C409.387 300.963 409.067 302.264 408.768 303.544C408.512 304.781 408.384 305.763 408.384 306.488C408.384 307.341 408.576 308.003 408.96 308.472C409.344 308.941 410.005 309.176 410.944 309.176C412.224 309.176 413.248 308.728 414.016 307.832C414.784 306.893 415.552 305.464 416.32 303.544H419.008C417.429 308.237 415.595 311.395 413.504 313.016C411.456 314.595 409.323 315.384 407.104 315.384ZM425.657 315.256C422.499 315.256 420.003 314.445 418.169 312.824C416.334 311.203 415.416 308.643 415.416 305.144C415.416 302.2 415.992 298.979 417.145 295.48C418.297 291.939 420.174 288.888 422.777 286.328C425.379 283.725 428.707 282.424 432.76 282.424C437.795 282.424 440.505 285.304 440.889 291.064C441.827 290.851 442.659 290.339 443.385 289.528C444.11 288.675 444.793 287.715 445.433 286.648H447.481C446.329 288.952 445.305 290.765 444.409 292.088C443.513 293.368 442.339 294.413 440.889 295.224C440.633 299.235 439.801 302.755 438.393 305.784C437.027 308.813 435.235 311.16 433.017 312.824C430.798 314.445 428.345 315.256 425.657 315.256ZM428.217 309.496C429.795 309.496 431.267 308.216 432.633 305.656C433.998 303.096 434.937 299.939 435.449 296.184C434.425 295.8 433.913 294.84 433.913 293.304C433.913 291.64 434.51 290.531 435.705 289.976C435.619 288.611 435.385 287.672 435.001 287.16C434.659 286.605 434.083 286.328 433.273 286.328C431.865 286.328 430.521 287.352 429.241 289.4C427.961 291.405 426.915 293.859 426.105 296.76C425.337 299.619 424.953 302.136 424.953 304.312C424.953 306.36 425.187 307.747 425.657 308.472C426.126 309.155 426.979 309.496 428.217 309.496ZM472.063 279.544C470.655 279.544 469.46 279.053 468.479 278.072C467.498 277.091 467.007 275.896 467.007 274.488C467.007 273.08 467.498 271.885 468.479 270.904C469.46 269.88 470.655 269.368 472.063 269.368C473.471 269.368 474.666 269.88 475.647 270.904C476.671 271.885 477.183 273.08 477.183 274.488C477.183 275.896 476.671 277.091 475.647 278.072C474.666 279.053 473.471 279.544 472.063 279.544ZM467.711 315.384C465.663 315.384 463.999 314.744 462.719 313.464C461.482 312.184 460.863 310.264 460.863 307.704C460.863 306.637 461.034 305.251 461.375 303.544L465.727 283H474.943L470.335 304.76C470.164 305.4 470.079 306.083 470.079 306.808C470.079 307.661 470.271 308.28 470.655 308.664C471.082 309.005 471.764 309.176 472.703 309.176C473.94 309.176 475.092 308.664 476.159 307.64C477.226 306.573 477.994 305.208 478.463 303.544H481.151C479.572 308.152 477.546 311.288 475.071 312.952C472.596 314.573 470.143 315.384 467.711 315.384ZM484.774 315.384C482.726 315.384 481.062 314.744 479.782 313.464C478.544 312.184 477.925 310.264 477.925 307.704C477.925 306.637 478.096 305.251 478.438 303.544L482.79 283H492.006L487.398 304.76C487.27 305.4 487.206 305.997 487.206 306.552C487.206 308.301 487.846 309.176 489.126 309.176C490.32 309.176 491.344 308.685 492.198 307.704C493.051 306.68 493.734 305.293 494.246 303.544L498.598 283H507.814L503.206 304.76C503.035 305.4 502.95 306.083 502.95 306.808C502.95 307.661 503.142 308.28 503.526 308.664C503.952 309.005 504.635 309.176 505.574 309.176C506.768 309.176 507.792 308.664 508.646 307.64C509.542 306.616 510.246 305.251 510.757 303.544H513.446C511.867 308.152 509.904 311.288 507.558 312.952C505.254 314.573 502.928 315.384 500.582 315.384C498.747 315.384 497.275 314.872 496.166 313.848C495.099 312.824 494.459 311.309 494.246 309.304C492.795 311.651 491.259 313.251 489.638 314.104C488.059 314.957 486.438 315.384 484.774 315.384ZM549.662 315.384C547.059 315.384 545.139 314.701 543.902 313.336C542.707 311.928 542.11 310.2 542.11 308.152C542.11 307.256 542.217 306.253 542.43 305.144C542.643 303.992 542.857 302.883 543.07 301.816C543.326 300.749 543.497 300.067 543.582 299.768C543.923 298.275 544.243 296.803 544.542 295.352C544.841 293.901 544.99 292.728 544.99 291.832C544.99 289.656 544.222 288.568 542.686 288.568C541.577 288.568 540.595 289.123 539.742 290.232C538.889 291.299 538.206 292.707 537.694 294.456L533.342 315H524.126L528.798 292.92C528.926 292.408 528.99 291.875 528.99 291.32C528.99 289.443 528.35 288.504 527.07 288.504C525.875 288.504 524.83 289.059 523.934 290.168C523.081 291.235 522.398 292.664 521.886 294.456L517.534 315H508.318L515.102 283H524.318L523.614 286.328C525.79 283.896 528.393 282.68 531.422 282.68C535.177 282.68 537.374 284.515 538.014 288.184C540.361 284.557 543.326 282.744 546.91 282.744C549.086 282.744 550.814 283.341 552.094 284.536C553.374 285.731 554.014 287.544 554.014 289.976C554.014 291.213 553.865 292.6 553.566 294.136C553.267 295.629 552.841 297.464 552.286 299.64C551.945 300.963 551.625 302.264 551.326 303.544C551.07 304.781 550.942 305.763 550.942 306.488C550.942 307.341 551.134 308.003 551.518 308.472C551.902 308.941 552.563 309.176 553.502 309.176C554.782 309.176 555.806 308.728 556.574 307.832C557.342 306.893 558.11 305.464 558.878 303.544H561.566C559.987 308.237 558.153 311.395 556.062 313.016C554.014 314.595 551.881 315.384 549.662 315.384ZM566.555 315.384C564.123 315.384 562.096 314.552 560.475 312.888C558.854 311.224 558.043 308.621 558.043 305.08C558.043 301.923 558.662 298.616 559.899 295.16C561.179 291.661 563.056 288.717 565.531 286.328C568.048 283.896 571.035 282.68 574.491 282.68C576.24 282.68 577.542 282.979 578.395 283.576C579.248 284.173 579.675 284.963 579.675 285.944V286.392L580.379 283H589.595L584.987 304.76C584.816 305.4 584.731 306.083 584.731 306.808C584.731 308.643 585.606 309.56 587.355 309.56C588.55 309.56 589.574 309.005 590.427 307.896C591.323 306.787 592.027 305.336 592.539 303.544H595.227C593.648 308.152 591.686 311.288 589.339 312.952C587.035 314.573 584.71 315.384 582.363 315.384C580.571 315.384 579.12 314.893 578.011 313.912C576.944 312.888 576.304 311.416 576.091 309.496C574.854 311.245 573.467 312.675 571.931 313.784C570.438 314.851 568.646 315.384 566.555 315.384ZM570.715 309.176C571.782 309.176 572.827 308.685 573.851 307.704C574.918 306.68 575.643 305.293 576.027 303.544L579.099 289.08C579.099 288.525 578.886 287.992 578.459 287.48C578.032 286.925 577.371 286.648 576.475 286.648C574.768 286.648 573.232 287.651 571.867 289.656C570.502 291.619 569.435 294.008 568.667 296.824C567.899 299.597 567.515 302.051 567.515 304.184C567.515 306.317 567.814 307.683 568.411 308.28C569.051 308.877 569.819 309.176 570.715 309.176ZM603.891 331C601.843 331 600.136 330.467 598.771 329.4C597.405 328.333 596.723 326.797 596.723 324.792C596.723 322.36 597.704 320.397 599.667 318.904C601.629 317.453 604.125 316.237 607.155 315.256L607.923 311.864C605.747 314.211 603.187 315.384 600.243 315.384C597.811 315.384 595.784 314.552 594.163 312.888C592.541 311.224 591.73 308.621 591.73 305.08C591.73 301.923 592.349 298.616 593.587 295.16C594.867 291.661 596.744 288.717 599.219 286.328C601.736 283.896 604.723 282.68 608.179 282.68C609.928 282.68 611.229 282.979 612.083 283.576C612.936 284.173 613.363 284.963 613.363 285.944V286.328L614.067 283H623.283L616.947 312.696C618.995 312.013 620.637 310.989 621.875 309.624C623.112 308.259 624.157 306.232 625.011 303.544H627.699C626.547 307.341 624.989 310.136 623.027 311.928C621.064 313.677 618.845 314.872 616.371 315.512L615.411 320.12C614.557 324.259 613.085 327.096 610.995 328.632C608.904 330.211 606.536 331 603.891 331ZM604.403 309.176C605.384 309.176 606.387 308.728 607.411 307.832C608.435 306.936 609.139 305.72 609.523 304.184L612.787 289.016C612.787 288.504 612.573 287.992 612.147 287.48C611.72 286.925 611.059 286.648 610.163 286.648C608.456 286.648 606.92 287.651 605.555 289.656C604.189 291.619 603.123 294.008 602.355 296.824C601.587 299.597 601.203 302.051 601.203 304.184C601.203 306.317 601.501 307.683 602.099 308.28C602.739 308.877 603.507 309.176 604.403 309.176ZM602.419 326.008C603.144 326.008 603.848 325.517 604.531 324.536C605.213 323.555 605.747 322.147 606.131 320.312L606.515 318.456C602.333 319.992 600.243 321.805 600.243 323.896C600.243 324.451 600.435 324.941 600.819 325.368C601.203 325.795 601.736 326.008 602.419 326.008ZM634.024 315.384C630.909 315.384 628.477 314.573 626.728 312.952C624.979 311.288 624.104 308.707 624.104 305.208C624.104 302.264 624.68 299.021 625.832 295.48C626.984 291.939 628.861 288.888 631.464 286.328C634.067 283.725 637.373 282.424 641.384 282.424C646.077 282.424 648.424 284.472 648.424 288.568C648.424 290.957 647.741 293.155 646.376 295.16C645.011 297.165 643.197 298.787 640.936 300.024C638.675 301.219 636.264 301.901 633.704 302.072C633.619 303.011 633.576 303.651 633.576 303.992C633.576 307.533 634.899 309.304 637.544 309.304C638.739 309.304 640.019 308.984 641.384 308.344C642.749 307.704 643.987 306.893 645.096 305.912C643.944 312.227 640.253 315.384 634.024 315.384ZM634.152 299C635.773 298.957 637.288 298.424 638.696 297.4C640.147 296.376 641.299 295.075 642.152 293.496C643.048 291.875 643.496 290.189 643.496 288.44C643.496 286.691 642.963 285.816 641.896 285.816C640.403 285.816 638.909 287.181 637.416 289.912C635.965 292.6 634.877 295.629 634.152 299Z" fill="#585656"/>
</svg>
