<svg width="400" height="300" viewBox="0 0 400 300" fill="none" xmlns="http://www.w3.org/2000/svg">
<rect width="400" height="300" fill="#D9D9D9"/>
<path d="M91.104 174.384C88.5013 174.384 86.5813 173.701 85.344 172.336C84.1493 170.928 83.552 169.2 83.552 167.152C83.552 166.256 83.6587 165.253 83.872 164.144C84.0853 162.992 84.2987 161.883 84.512 160.816C84.768 159.749 84.9387 159.067 85.024 158.768C85.3653 157.275 85.6853 155.803 85.984 154.352C86.2827 152.901 86.432 151.728 86.432 150.832C86.432 148.656 85.664 147.568 84.128 147.568C83.0187 147.568 82.0373 148.123 81.184 149.232C80.3307 150.299 79.648 151.707 79.136 153.456L74.784 174H65.568L72.352 142H81.568L80.864 145.328C82.9973 142.939 85.4933 141.744 88.352 141.744C90.528 141.744 92.256 142.341 93.536 143.536C94.816 144.731 95.456 146.544 95.456 148.976C95.456 150.213 95.3067 151.6 95.008 153.136C94.7093 154.629 94.2827 156.464 93.728 158.64C93.3867 159.963 93.0667 161.264 92.768 162.544C92.512 163.781 92.384 164.763 92.384 165.488C92.384 166.341 92.576 167.003 92.96 167.472C93.344 167.941 94.0053 168.176 94.944 168.176C96.224 168.176 97.248 167.728 98.016 166.832C98.784 165.893 99.552 164.464 100.32 162.544H103.008C101.429 167.237 99.5947 170.395 97.504 172.016C95.456 173.595 93.3227 174.384 91.104 174.384ZM109.657 174.256C106.499 174.256 104.003 173.445 102.169 171.824C100.334 170.203 99.4165 167.643 99.4165 164.144C99.4165 161.2 99.9925 157.979 101.145 154.48C102.297 150.939 104.174 147.888 106.777 145.328C109.379 142.725 112.707 141.424 116.76 141.424C121.795 141.424 124.505 144.304 124.889 150.064C125.827 149.851 126.659 149.339 127.385 148.528C128.11 147.675 128.793 146.715 129.433 145.648H131.481C130.329 147.952 129.305 149.765 128.409 151.088C127.513 152.368 126.339 153.413 124.889 154.224C124.633 158.235 123.801 161.755 122.393 164.784C121.027 167.813 119.235 170.16 117.017 171.824C114.798 173.445 112.345 174.256 109.657 174.256ZM112.217 168.496C113.795 168.496 115.267 167.216 116.633 164.656C117.998 162.096 118.937 158.939 119.449 155.184C118.425 154.8 117.913 153.84 117.913 152.304C117.913 150.64 118.51 149.531 119.705 148.976C119.619 147.611 119.385 146.672 119.001 146.16C118.659 145.605 118.083 145.328 117.273 145.328C115.865 145.328 114.521 146.352 113.241 148.4C111.961 150.405 110.915 152.859 110.105 155.76C109.337 158.619 108.953 161.136 108.953 163.312C108.953 165.36 109.187 166.747 109.657 167.472C110.126 168.155 110.979 168.496 112.217 168.496ZM156.063 138.544C154.655 138.544 153.46 138.053 152.479 137.072C151.498 136.091 151.007 134.896 151.007 133.488C151.007 132.08 151.498 130.885 152.479 129.904C153.46 128.88 154.655 128.368 156.063 128.368C157.471 128.368 158.666 128.88 159.647 129.904C160.671 130.885 161.183 132.08 161.183 133.488C161.183 134.896 160.671 136.091 159.647 137.072C158.666 138.053 157.471 138.544 156.063 138.544ZM151.711 174.384C149.663 174.384 147.999 173.744 146.719 172.464C145.482 171.184 144.863 169.264 144.863 166.704C144.863 165.637 145.034 164.251 145.375 162.544L149.727 142H158.943L154.335 163.76C154.164 164.4 154.079 165.083 154.079 165.808C154.079 166.661 154.271 167.28 154.655 167.664C155.082 168.005 155.764 168.176 156.703 168.176C157.94 168.176 159.092 167.664 160.159 166.64C161.226 165.573 161.994 164.208 162.463 162.544H165.151C163.572 167.152 161.546 170.288 159.071 171.952C156.596 173.573 154.143 174.384 151.711 174.384ZM168.774 174.384C166.726 174.384 165.062 173.744 163.782 172.464C162.544 171.184 161.925 169.264 161.925 166.704C161.925 165.637 162.096 164.251 162.438 162.544L166.79 142H176.006L171.398 163.76C171.27 164.4 171.206 164.997 171.206 165.552C171.206 167.301 171.846 168.176 173.126 168.176C174.32 168.176 175.344 167.685 176.198 166.704C177.051 165.68 177.734 164.293 178.246 162.544L182.598 142H191.814L187.206 163.76C187.035 164.4 186.95 165.083 186.95 165.808C186.95 166.661 187.142 167.28 187.526 167.664C187.952 168.005 188.635 168.176 189.574 168.176C190.768 168.176 191.792 167.664 192.646 166.64C193.542 165.616 194.246 164.251 194.757 162.544H197.446C195.867 167.152 193.904 170.288 191.558 171.952C189.254 173.573 186.928 174.384 184.582 174.384C182.747 174.384 181.275 173.872 180.166 172.848C179.099 171.824 178.459 170.309 178.246 168.304C176.795 170.651 175.259 172.251 173.638 173.104C172.059 173.957 170.438 174.384 168.774 174.384ZM233.662 174.384C231.059 174.384 229.139 173.701 227.902 172.336C226.707 170.928 226.11 169.2 226.11 167.152C226.11 166.256 226.217 165.253 226.43 164.144C226.643 162.992 226.857 161.883 227.07 160.816C227.326 159.749 227.497 159.067 227.582 158.768C227.923 157.275 228.243 155.803 228.542 154.352C228.841 152.901 228.99 151.728 228.99 150.832C228.99 148.656 228.222 147.568 226.686 147.568C225.577 147.568 224.595 148.123 223.742 149.232C222.889 150.299 222.206 151.707 221.694 153.456L217.342 174H208.126L212.798 151.92C212.926 151.408 212.99 150.875 212.99 150.32C212.99 148.443 212.35 147.504 211.07 147.504C209.875 147.504 208.83 148.059 207.934 149.168C207.081 150.235 206.398 151.664 205.886 153.456L201.534 174H192.318L199.102 142H208.318L207.614 145.328C209.79 142.896 212.393 141.68 215.422 141.68C219.177 141.68 221.374 143.515 222.014 147.184C224.361 143.557 227.326 141.744 230.91 141.744C233.086 141.744 234.814 142.341 236.094 143.536C237.374 144.731 238.014 146.544 238.014 148.976C238.014 150.213 237.865 151.6 237.566 153.136C237.267 154.629 236.841 156.464 236.286 158.64C235.945 159.963 235.625 161.264 235.326 162.544C235.07 163.781 234.942 164.763 234.942 165.488C234.942 166.341 235.134 167.003 235.518 167.472C235.902 167.941 236.563 168.176 237.502 168.176C238.782 168.176 239.806 167.728 240.574 166.832C241.342 165.893 242.11 164.464 242.878 162.544H245.566C243.987 167.237 242.153 170.395 240.062 172.016C238.014 173.595 235.881 174.384 233.662 174.384ZM250.555 174.384C248.123 174.384 246.096 173.552 244.475 171.888C242.854 170.224 242.043 167.621 242.043 164.08C242.043 160.923 242.662 157.616 243.899 154.16C245.179 150.661 247.056 147.717 249.531 145.328C252.048 142.896 255.035 141.68 258.491 141.68C260.24 141.68 261.542 141.979 262.395 142.576C263.248 143.173 263.675 143.963 263.675 144.944V145.392L264.379 142H273.595L268.987 163.76C268.816 164.4 268.731 165.083 268.731 165.808C268.731 167.643 269.606 168.56 271.355 168.56C272.55 168.56 273.574 168.005 274.427 166.896C275.323 165.787 276.027 164.336 276.539 162.544H279.227C277.648 167.152 275.686 170.288 273.339 171.952C271.035 173.573 268.71 174.384 266.363 174.384C264.571 174.384 263.12 173.893 262.011 172.912C260.944 171.888 260.304 170.416 260.091 168.496C258.854 170.245 257.467 171.675 255.931 172.784C254.438 173.851 252.646 174.384 250.555 174.384ZM254.715 168.176C255.782 168.176 256.827 167.685 257.851 166.704C258.918 165.68 259.643 164.293 260.027 162.544L263.099 148.08C263.099 147.525 262.886 146.992 262.459 146.48C262.032 145.925 261.371 145.648 260.475 145.648C258.768 145.648 257.232 146.651 255.867 148.656C254.502 150.619 253.435 153.008 252.667 155.824C251.899 158.597 251.515 161.051 251.515 163.184C251.515 165.317 251.814 166.683 252.411 167.28C253.051 167.877 253.819 168.176 254.715 168.176ZM287.891 190C285.843 190 284.136 189.467 282.771 188.4C281.405 187.333 280.723 185.797 280.723 183.792C280.723 181.36 281.704 179.397 283.667 177.904C285.629 176.453 288.125 175.237 291.155 174.256L291.923 170.864C289.747 173.211 287.187 174.384 284.243 174.384C281.811 174.384 279.784 173.552 278.163 171.888C276.541 170.224 275.73 167.621 275.73 164.08C275.73 160.923 276.349 157.616 277.587 154.16C278.867 150.661 280.744 147.717 283.219 145.328C285.736 142.896 288.723 141.68 292.179 141.68C293.928 141.68 295.229 141.979 296.083 142.576C296.936 143.173 297.363 143.963 297.363 144.944V145.328L298.067 142H307.283L300.947 171.696C302.995 171.013 304.637 169.989 305.875 168.624C307.112 167.259 308.157 165.232 309.011 162.544H311.699C310.547 166.341 308.989 169.136 307.027 170.928C305.064 172.677 302.845 173.872 300.371 174.512L299.411 179.12C298.557 183.259 297.085 186.096 294.995 187.632C292.904 189.211 290.536 190 287.891 190ZM288.403 168.176C289.384 168.176 290.387 167.728 291.411 166.832C292.435 165.936 293.139 164.72 293.523 163.184L296.787 148.016C296.787 147.504 296.573 146.992 296.147 146.48C295.72 145.925 295.059 145.648 294.163 145.648C292.456 145.648 290.92 146.651 289.555 148.656C288.189 150.619 287.123 153.008 286.355 155.824C285.587 158.597 285.203 161.051 285.203 163.184C285.203 165.317 285.501 166.683 286.099 167.28C286.739 167.877 287.507 168.176 288.403 168.176ZM286.419 185.008C287.144 185.008 287.848 184.517 288.531 183.536C289.213 182.555 289.747 181.147 290.131 179.312L290.515 177.456C286.333 178.992 284.243 180.805 284.243 182.896C284.243 183.451 284.435 183.941 284.819 184.368C285.203 184.795 285.736 185.008 286.419 185.008ZM318.024 174.384C314.909 174.384 312.477 173.573 310.728 171.952C308.979 170.288 308.104 167.707 308.104 164.208C308.104 161.264 308.68 158.021 309.832 154.48C310.984 150.939 312.861 147.888 315.464 145.328C318.067 142.725 321.373 141.424 325.384 141.424C330.077 141.424 332.424 143.472 332.424 147.568C332.424 149.957 331.741 152.155 330.376 154.16C329.011 156.165 327.197 157.787 324.936 159.024C322.675 160.219 320.264 160.901 317.704 161.072C317.619 162.011 317.576 162.651 317.576 162.992C317.576 166.533 318.899 168.304 321.544 168.304C322.739 168.304 324.019 167.984 325.384 167.344C326.749 166.704 327.987 165.893 329.096 164.912C327.944 171.227 324.253 174.384 318.024 174.384ZM318.152 158C319.773 157.957 321.288 157.424 322.696 156.4C324.147 155.376 325.299 154.075 326.152 152.496C327.048 150.875 327.496 149.189 327.496 147.44C327.496 145.691 326.963 144.816 325.896 144.816C324.403 144.816 322.909 146.181 321.416 148.912C319.965 151.6 318.877 154.629 318.152 158Z" fill="#585656"/>
</svg>
